<?xml version="1.0" encoding="UTF-8"?>
<svg id="Layer_2" data-name="Layer 2" xmlns="http://www.w3.org/2000/svg" viewBox="0 0 939.41 474.7">
  <defs>
    <style>
      .cls-1 {
        fill: #fff616;
      }
    </style>
  </defs>
  <g id="Layer_1-2" data-name="Layer 1">
    <g>
      <path class="cls-1" d="m913.31,214.26c-5.28-4.67-10.72-9.38-16.17-14h0c-23.95-20.31-62.33-50.94-109.18-81.59-52.66-34.45-105.07-61.9-155.8-81.59C568.78,12.48,507.88,0,451.16,0h-1.22c-1.21,0-2.43.01-3.64.04h0s-.04,0-.05,0c-.05,0-.1,0-.15,0h0c-55.8.72-113.76,13.48-172.27,37.92-46.96,19.62-94.4,46.77-141.01,80.72-42.09,30.65-75.7,61.29-96.48,81.59-5.36,5.23-10.6,10.5-15.59,15.65L0,237.35l20.76,21.44c5,5.16,10.24,10.42,15.59,15.64,20.79,20.3,54.4,50.94,96.48,81.59,47.31,34.46,95.45,61.91,143.1,81.59,59.57,24.61,118.53,37.08,175.23,37.08s117.62-12.48,181.01-37.09c50.72-19.69,103.14-47.14,155.8-81.59,46.85-30.65,85.23-61.28,109.18-81.59,5.46-4.62,10.89-9.33,16.17-14l26.1-23.09-26.1-23.09ZM374.33,93.12c19.38-19.73,45.25-30.89,72.86-31.44.91-.01,1.82-.02,2.74-.02,57.64.32,104.51,47.46,104.51,105.11s-47.16,105.12-105.12,105.12-105.12-47.16-105.12-105.12c0-27.72,10.7-53.88,30.12-73.65Zm379.88,211.31c-75.74,49.55-189.8,108.62-303.05,108.62-48.59,0-99.63-10.91-151.7-32.42-43.13-17.82-86.99-42.86-130.34-74.44-34.52-25.14-62.93-50.3-82.42-68.84,19.48-18.54,47.89-43.69,82.42-68.84,42.72-31.12,85.95-55.9,128.48-73.66.5-.21.99-.41,1.49-.62-10.81,22.35-16.52,47.03-16.52,72.54,0,91.96,74.81,166.77,166.76,166.77s166.76-74.81,166.76-166.77c0-27.16-6.45-53.34-18.64-76.77,59.71,21.68,114.26,52.47,156.76,80.27,37.11,24.28,68.61,48.57,91.15,67.08-22.54,18.52-54.04,42.8-91.15,67.08Z"/>
      <circle class="cls-1" cx="447.71" cy="166.5" r="45.71"/>
    </g>
  </g>
</svg>