<?xml version="1.0" encoding="utf-8"?>
<!-- Generator: Adobe Illustrator 27.4.0, SVG Export Plug-In . SVG Version: 6.00 Build 0)  -->
<svg version="1.1" id="Layer_2_00000072983472467482316240000001135285512869167547_"
	 xmlns="http://www.w3.org/2000/svg" xmlns:xlink="http://www.w3.org/1999/xlink" x="0px" y="0px" viewBox="0 0 939.4 474.7"
	 style="enable-background:new 0 0 939.4 474.7;" xml:space="preserve">
<style type="text/css">
	.st0{fill:#FFFFFF;}
</style>
<g id="Layer_1-2">
	<g>
		<path class="st0" d="M913.3,214.3c-5.3-4.7-10.7-9.4-16.2-14l0,0c-24-20.3-62.3-50.9-109.2-81.6c-52.7-34.4-105.1-61.9-155.8-81.6
			C568.8,12.5,507.9,0,451.2,0h-1.2c-1.2,0-2.4,0-3.6,0l0,0c0,0,0,0,0,0c0,0-0.1,0-0.1,0l0,0C390.3,0.8,332.3,13.5,273.8,38
			c-47,19.6-94.4,46.8-141,80.7c-42.1,30.7-75.7,61.3-96.5,81.6c-5.4,5.2-10.6,10.5-15.6,15.6L0,237.4l20.8,21.4
			c5,5.2,10.2,10.4,15.6,15.6c20.8,20.3,54.4,50.9,96.5,81.6c47.3,34.5,95.4,61.9,143.1,81.6c59.6,24.6,118.5,37.1,175.2,37.1
			s117.6-12.5,181-37.1c50.7-19.7,103.1-47.1,155.8-81.6c46.8-30.6,85.2-61.3,109.2-81.6c5.5-4.6,10.9-9.3,16.2-14l26.1-23.1
			L913.3,214.3L913.3,214.3z M374.3,93.1c19.4-19.7,45.2-30.9,72.9-31.4c0.9,0,1.8,0,2.7,0c57.6,0.3,104.5,47.5,104.5,105.1
			s-47.2,105.1-105.1,105.1s-105.1-47.2-105.1-105.1C344.2,139.1,354.9,112.9,374.3,93.1L374.3,93.1z M754.2,304.4
			C678.5,354,564.4,413,451.2,413c-48.6,0-99.6-10.9-151.7-32.4c-43.1-17.8-87-42.9-130.3-74.4c-34.5-25.1-62.9-50.3-82.4-68.8
			c19.5-18.5,47.9-43.7,82.4-68.8c42.7-31.1,85.9-55.9,128.5-73.7c0.5-0.2,1-0.4,1.5-0.6c-10.8,22.3-16.5,47-16.5,72.5
			c0,92,74.8,166.8,166.8,166.8s166.8-74.8,166.8-166.8c0-27.2-6.5-53.3-18.6-76.8c59.7,21.7,114.3,52.5,156.8,80.3
			c37.1,24.3,68.6,48.6,91.2,67.1C822.8,255.9,791.3,280.1,754.2,304.4z"/>
		<circle class="st0" cx="447.7" cy="166.5" r="45.7"/>
	</g>
</g>
</svg>
