<svg width="393" height="852" viewBox="0 0 393 852" fill="none" xmlns="http://www.w3.org/2000/svg">
<g clip-path="url(#clip0_12_58)">
<rect width="393" height="852" fill="white"/>
<rect x="0.5" y="695.5" width="392" height="73" fill="#C3E6FF" stroke="black"/>
<rect x="0.5" y="768.5" width="392" height="83" stroke="black"/>
<rect x="0.5" y="0.5" width="392" height="851" stroke="black"/>
<rect x="0.5" y="0.5" width="392" height="59" stroke="black"/>
<rect x="44" y="803.882" width="39" height="5" fill="black"/>
<rect x="44" y="792.882" width="39" height="5" fill="black"/>
<rect x="44" y="814.882" width="39" height="5" fill="black"/>
<rect x="316.944" y="817.577" width="39" height="5" transform="rotate(-45 316.944 817.577)" fill="black"/>
<rect x="319.536" y="790.056" width="39" height="5" transform="rotate(45 319.536 790.056)" fill="black"/>
<path d="M37.656 37L40.032 20.176H41.808L41.136 24.808L40.848 26.896C41.736 25.744 43.176 24.952 44.688 24.952C47.448 24.952 49.176 26.944 48.72 30.28L47.784 37H45.984L46.968 30.016C47.28 27.808 46.32 26.608 44.448 26.608C42.096 26.608 40.632 28.408 40.248 31.168L39.432 37H37.656ZM56.9308 37.264C53.9068 37.264 52.7068 35.008 53.1868 31.672L54.0988 25.24H55.8508L54.8908 32.152C54.5788 34.384 55.4188 35.584 57.2908 35.584C59.6428 35.584 60.9388 33.832 61.3228 31.072L62.1388 25.24H63.9388L62.2828 37H60.5788L60.7708 35.536C59.7628 36.712 58.4188 37.264 56.9308 37.264ZM67.4216 37L69.0776 25.24H70.8056L70.5656 26.92C71.5256 25.72 72.9416 24.952 74.4536 24.952C77.4536 24.952 78.9656 27.064 78.4856 30.4L77.5496 37H75.7496L76.7336 30.016C77.0456 27.808 76.0856 26.608 74.2136 26.608C71.8616 26.608 70.3976 28.408 70.0136 31.168L69.1976 37H67.4216ZM86.3124 41.92C83.2644 41.92 81.8724 40.048 81.5124 39.352L82.9044 38.176C83.2404 38.944 84.4164 40.288 86.2884 40.288C89.0244 40.288 90.4404 38.56 90.7524 36.184L90.8724 35.32L90.9204 34.888C89.8644 36.184 88.4244 36.736 86.8404 36.736C84.1524 36.736 82.2804 34.6 82.2804 31.648C82.2804 27.736 85.0884 24.952 88.3764 24.952C89.9604 24.952 91.5684 25.816 92.0964 26.992L92.3364 25.24H94.0644L92.5284 36.28C92.0244 39.832 89.8164 41.92 86.3124 41.92ZM84.1044 31.504C84.1044 33.616 85.3764 35.056 87.2484 35.056C89.6004 35.056 91.6164 33.04 91.6164 30.232C91.6164 28.072 90.3204 26.632 88.4244 26.632C86.0724 26.632 84.1044 28.648 84.1044 31.504ZM97.9553 37L99.6113 25.24H101.315L101.051 27.208C101.603 26.008 103.067 24.952 104.603 24.952C107.147 24.952 108.755 26.776 108.371 30.016L108.299 30.616H106.499L106.571 30.064C106.859 27.856 105.899 26.608 104.411 26.608C102.227 26.608 100.907 28.792 100.523 31.552L99.7553 37H97.9553ZM113.318 41.728C112.622 41.728 111.83 41.704 111.446 41.68L111.71 39.856C112.094 39.88 112.79 39.904 113.318 39.904C114.302 39.904 114.71 39.568 115.142 38.776L116.03 37.144L112.814 25.24H114.806L116.222 30.832C116.558 32.224 116.942 33.616 117.302 35.008L122.462 25.24H124.43L116.822 39.304C115.886 41.032 114.878 41.728 113.318 41.728ZM132.017 30.736L133.049 20.176H135.353L133.409 30.736H132.017ZM129.929 35.032C129.929 33.808 130.937 32.8 132.161 32.8C133.385 32.8 134.393 33.808 134.393 35.032C134.393 36.256 133.385 37.264 132.161 37.264C130.937 37.264 129.929 36.256 129.929 35.032Z" fill="black"/>
<path d="M38.904 115.728C38.208 115.728 37.416 115.704 37.032 115.68L37.296 113.856C37.68 113.88 38.376 113.904 38.904 113.904C39.888 113.904 40.296 113.568 40.728 112.776L41.616 111.144L38.4 99.24H40.392L41.808 104.832C42.144 106.224 42.528 107.616 42.888 109.008L48.048 99.24H50.016L42.408 113.304C41.472 115.032 40.464 115.728 38.904 115.728ZM57.5308 111.264C54.3388 111.264 52.3228 108.888 52.3228 105.768C52.3228 102.024 55.2268 98.952 59.0428 98.952C62.2588 98.952 64.2988 101.352 64.2988 104.472C64.2988 108.216 61.3708 111.264 57.5308 111.264ZM54.1468 105.744C54.1468 107.952 55.5148 109.608 57.6508 109.608C60.3388 109.608 62.4508 107.328 62.4508 104.496C62.4508 102.288 61.1068 100.632 58.9228 100.632C56.2588 100.632 54.1468 102.912 54.1468 105.744ZM71.8136 111.264C68.7896 111.264 67.5896 109.008 68.0696 105.672L68.9816 99.24H70.7336L69.7736 106.152C69.4616 108.384 70.3016 109.584 72.1736 109.584C74.5256 109.584 75.8216 107.832 76.2056 105.072L77.0216 99.24H78.8216L77.1656 111H75.4616L75.6536 109.536C74.6456 110.712 73.3016 111.264 71.8136 111.264ZM83.0724 111L84.7284 99.24H86.4324L86.1684 101.208C86.7204 100.008 88.1844 98.952 89.7204 98.952C92.2644 98.952 93.8724 100.776 93.4884 104.016L93.4164 104.616H91.6164L91.6884 104.064C91.9764 101.856 91.0164 100.608 89.5284 100.608C87.3444 100.608 86.0244 102.792 85.6404 105.552L84.8724 111H83.0724ZM112.022 111L112.262 109.368H116.798L117.974 100.872H113.414L113.654 99.24H119.99L118.574 109.368H123.062L122.822 111H112.022ZM117.518 95.208C117.518 94.128 118.406 93.24 119.486 93.24C120.566 93.24 121.454 94.128 121.454 95.208C121.454 96.288 120.566 97.176 119.486 97.176C118.406 97.176 117.518 96.288 117.518 95.208ZM126.953 111L128.609 99.24H130.337L130.097 100.92C131.057 99.72 132.473 98.952 133.985 98.952C136.985 98.952 138.497 101.064 138.017 104.4L137.081 111H135.281L136.265 104.016C136.577 101.808 135.617 100.608 133.745 100.608C131.393 100.608 129.929 102.408 129.545 105.168L128.729 111H126.953ZM145.844 115.92C142.796 115.92 141.404 114.048 141.044 113.352L142.436 112.176C142.772 112.944 143.948 114.288 145.82 114.288C148.556 114.288 149.972 112.56 150.284 110.184L150.404 109.32L150.452 108.888C149.396 110.184 147.956 110.736 146.372 110.736C143.684 110.736 141.812 108.6 141.812 105.648C141.812 101.736 144.62 98.952 147.908 98.952C149.492 98.952 151.1 99.816 151.628 100.992L151.868 99.24H153.596L152.06 110.28C151.556 113.832 149.348 115.92 145.844 115.92ZM143.636 105.504C143.636 107.616 144.908 109.056 146.78 109.056C149.132 109.056 151.148 107.04 151.148 104.232C151.148 102.072 149.852 100.632 147.956 100.632C145.604 100.632 143.636 102.648 143.636 105.504ZM157.487 111L159.143 99.24H160.847L160.583 101.208C161.135 100.008 162.599 98.952 164.135 98.952C166.679 98.952 168.286 100.776 167.903 104.016L167.831 104.616H166.031L166.103 104.064C166.391 101.856 165.431 100.608 163.943 100.608C161.759 100.608 160.439 102.792 160.055 105.552L159.287 111H157.487ZM176.905 111.264C173.737 111.264 171.889 109.032 171.889 105.984C171.889 102.216 174.265 98.952 178.081 98.952C181.393 98.952 182.689 101.544 182.689 103.968C182.689 104.592 182.569 105.312 182.497 105.672H173.689C173.497 108.12 174.817 109.608 177.121 109.608C178.513 109.608 179.689 108.984 180.745 107.88L181.873 109.104C180.649 110.376 179.137 111.264 176.905 111.264ZM173.929 104.088H180.937C181.081 102.024 179.857 100.632 177.889 100.632C175.825 100.632 174.481 102.144 173.929 104.088ZM191.164 111.264C188.26 111.264 186.244 108.96 186.244 105.84C186.244 102.072 188.86 98.952 192.604 98.952C194.38 98.952 195.748 99.84 196.324 101.04C196.42 100.32 196.54 99.552 196.636 98.784L197.308 94.176H199.084L196.708 111H195.004L195.244 109.392C194.212 110.688 192.796 111.264 191.164 111.264ZM188.092 105.84C188.092 107.976 189.244 109.608 191.332 109.608C193.996 109.608 195.892 107.256 195.892 104.424C195.892 102.288 194.716 100.632 192.604 100.632C189.94 100.632 188.092 103.008 188.092 105.84ZM201.319 111L201.559 109.368H206.095L207.271 100.872H202.711L202.951 99.24H209.287L207.871 109.368H212.359L212.119 111H201.319ZM206.815 95.208C206.815 94.128 207.703 93.24 208.783 93.24C209.863 93.24 210.751 94.128 210.751 95.208C210.751 96.288 209.863 97.176 208.783 97.176C207.703 97.176 206.815 96.288 206.815 95.208ZM221.554 111.264C218.386 111.264 216.538 109.032 216.538 105.984C216.538 102.216 218.914 98.952 222.73 98.952C226.042 98.952 227.338 101.544 227.338 103.968C227.338 104.592 227.218 105.312 227.146 105.672H218.338C218.146 108.12 219.466 109.608 221.77 109.608C223.162 109.608 224.338 108.984 225.394 107.88L226.522 109.104C225.298 110.376 223.786 111.264 221.554 111.264ZM218.578 104.088H225.586C225.73 102.024 224.506 100.632 222.538 100.632C220.474 100.632 219.13 102.144 218.578 104.088ZM231.133 111L232.789 99.24H234.517L234.277 100.92C235.237 99.72 236.653 98.952 238.165 98.952C241.165 98.952 242.677 101.064 242.197 104.4L241.261 111H239.461L240.445 104.016C240.757 101.808 239.797 100.608 237.925 100.608C235.573 100.608 234.109 102.408 233.725 105.168L232.909 111H231.133ZM252.159 111.264C249.999 111.264 248.295 109.728 248.727 106.632L249.543 100.872H246.039L246.279 99.24H249.783L250.239 95.976H252.015L251.559 99.24H257.631L257.391 100.872H251.319L250.479 106.872C250.191 108.936 251.175 109.632 252.303 109.632C253.551 109.632 254.463 108.84 254.679 107.832H256.359C256.071 109.656 254.583 111.264 252.159 111.264ZM265.962 111.264C263.85 111.264 261.93 110.4 260.97 108.936L262.41 107.832C263.202 109.032 264.522 109.632 266.058 109.632C267.81 109.632 269.298 109.056 269.298 107.64C269.298 106.824 268.602 106.296 267.474 106.104L265.65 105.792C263.226 105.384 262.098 104.208 262.098 102.504C262.098 100.08 264.57 98.952 266.898 98.952C268.722 98.952 270.738 99.768 271.698 101.472L270.234 102.432C269.538 101.184 268.122 100.608 266.658 100.608C265.05 100.608 263.922 101.376 263.922 102.48C263.922 103.296 264.57 103.848 265.722 104.04L267.546 104.352C269.946 104.76 271.098 105.912 271.098 107.64C271.098 109.896 268.818 111.264 265.962 111.264ZM282.093 103.56C280.869 103.56 279.861 102.552 279.861 101.328C279.861 100.104 280.869 99.096 282.093 99.096C283.317 99.096 284.325 100.104 284.325 101.328C284.325 102.552 283.317 103.56 282.093 103.56ZM278.781 109.032C278.781 107.808 279.789 106.8 281.013 106.8C282.237 106.8 283.245 107.808 283.245 109.032C283.245 110.256 282.237 111.264 281.013 111.264C279.789 111.264 278.781 110.256 278.781 109.032Z" fill="black"/>
<path d="M333.344 741L334.244 734.556H328.016L328.7 729.732H334.928L335.828 723.36H340.904L340.004 729.732H346.34L345.656 734.556H339.32L338.42 741H333.344Z" fill="black"/>
<path d="M265.844 167L267.604 154.44H263.264L263.464 152.98H273.824L273.624 154.44H269.144L267.384 167H265.844ZM279.126 167.22C276.466 167.22 274.786 165.24 274.786 162.64C274.786 159.52 277.206 156.96 280.386 156.96C283.066 156.96 284.766 158.96 284.766 161.56C284.766 164.68 282.326 167.22 279.126 167.22ZM276.306 162.62C276.306 164.46 277.446 165.84 279.226 165.84C281.466 165.84 283.226 163.94 283.226 161.58C283.226 159.74 282.106 158.36 280.286 158.36C278.066 158.36 276.306 160.26 276.306 162.62ZM286.428 167L287.808 157.2H289.208L289.048 158.4C289.508 157.54 290.248 156.96 291.128 156.96C292.108 156.96 292.808 157.56 292.908 158.56C293.508 157.54 294.408 156.96 295.468 156.96C297.188 156.96 297.888 158.42 297.588 160.5L296.668 167H295.208L296.148 160.38C296.348 158.94 295.848 158.34 295.028 158.34C294.028 158.34 293.348 159.32 293.148 160.8L292.268 167H290.848L291.768 160.48C291.968 159.06 291.588 158.34 290.728 158.34C289.648 158.34 288.968 159.34 288.768 160.8L287.888 167H286.428ZM302.911 167.2C300.951 167.2 299.891 165.94 299.891 164.5C299.891 162.5 301.471 161.52 303.991 161.22L306.911 160.86L306.951 160.58C307.151 159.16 306.351 158.3 305.031 158.3C303.671 158.3 302.691 159 302.471 160.36H300.931L300.971 160.08C301.211 158.4 302.891 156.94 305.031 156.94C307.531 156.94 308.691 158.52 308.371 160.9L307.891 164.48C307.751 165.44 307.971 165.74 308.791 165.74H309.431L309.251 166.92C309.011 166.98 308.511 167.06 308.051 167.06C306.971 167.06 306.451 166.38 306.471 165.56C305.671 166.52 304.431 167.2 302.911 167.2ZM301.411 164.42C301.411 165.2 301.951 165.84 303.111 165.84C304.911 165.84 306.351 164.66 306.611 162.96L306.731 162.16L303.711 162.56C302.231 162.76 301.411 163.4 301.411 164.42ZM317.293 167.22C315.493 167.22 314.073 165.94 314.433 163.36L315.113 158.56H312.193L312.393 157.2H315.313L315.693 154.48H317.173L316.793 157.2H321.853L321.653 158.56H316.593L315.893 163.56C315.653 165.28 316.473 165.86 317.413 165.86C318.453 165.86 319.213 165.2 319.393 164.36H320.793C320.553 165.88 319.313 167.22 317.293 167.22ZM328.735 167.22C326.075 167.22 324.395 165.24 324.395 162.64C324.395 159.52 326.815 156.96 329.995 156.96C332.675 156.96 334.375 158.96 334.375 161.56C334.375 164.68 331.935 167.22 328.735 167.22ZM325.915 162.62C325.915 164.46 327.055 165.84 328.835 165.84C331.075 165.84 332.835 163.94 332.835 161.58C332.835 159.74 331.715 158.36 329.895 158.36C327.675 158.36 325.915 160.26 325.915 162.62ZM341.198 167.22C339.438 167.22 337.838 166.5 337.038 165.28L338.238 164.36C338.898 165.36 339.998 165.86 341.278 165.86C342.738 165.86 343.978 165.38 343.978 164.2C343.978 163.52 343.398 163.08 342.458 162.92L340.938 162.66C338.918 162.32 337.978 161.34 337.978 159.92C337.978 157.9 340.038 156.96 341.978 156.96C343.498 156.96 345.178 157.64 345.978 159.06L344.758 159.86C344.178 158.82 342.998 158.34 341.778 158.34C340.438 158.34 339.498 158.98 339.498 159.9C339.498 160.58 340.038 161.04 340.998 161.2L342.518 161.46C344.518 161.8 345.478 162.76 345.478 164.2C345.478 166.08 343.578 167.22 341.198 167.22Z" fill="black"/>
<path d="M287.208 201L289.188 186.98H293.328C295.948 186.98 297.488 188.28 297.488 190.38C297.488 191.86 296.568 193.24 295.188 193.88C296.308 194.42 296.928 195.58 296.928 196.8C296.928 199.44 294.788 201 291.708 201H287.208ZM288.948 199.54H291.868C293.828 199.54 295.368 198.64 295.368 196.66C295.368 195.24 294.168 194.6 292.648 194.6H289.648L288.948 199.54ZM289.848 193.12H292.528C294.348 193.12 295.888 192.3 295.888 190.42C295.888 189 294.708 188.44 293.168 188.44H290.508L289.848 193.12ZM300.411 201L301.791 191.2H303.211L302.991 192.84C303.451 191.84 304.671 190.96 305.951 190.96C308.071 190.96 309.411 192.48 309.091 195.18L309.031 195.68H307.531L307.591 195.22C307.831 193.38 307.031 192.34 305.791 192.34C303.971 192.34 302.871 194.16 302.551 196.46L301.911 201H300.411ZM316.593 201.22C313.953 201.22 312.413 199.36 312.413 196.82C312.413 193.68 314.393 190.96 317.573 190.96C320.333 190.96 321.413 193.12 321.413 195.14C321.413 195.66 321.313 196.26 321.253 196.56H313.913C313.753 198.6 314.853 199.84 316.773 199.84C317.933 199.84 318.913 199.32 319.793 198.4L320.733 199.42C319.713 200.48 318.453 201.22 316.593 201.22ZM314.113 195.24H319.953C320.073 193.52 319.053 192.36 317.413 192.36C315.693 192.36 314.573 193.62 314.113 195.24ZM327.715 201.2C325.755 201.2 324.695 199.94 324.695 198.5C324.695 196.5 326.275 195.52 328.795 195.22L331.715 194.86L331.755 194.58C331.955 193.16 331.155 192.3 329.835 192.3C328.475 192.3 327.495 193 327.275 194.36H325.735L325.775 194.08C326.015 192.4 327.695 190.94 329.835 190.94C332.335 190.94 333.495 192.52 333.175 194.9L332.695 198.48C332.555 199.44 332.775 199.74 333.595 199.74H334.235L334.055 200.92C333.815 200.98 333.315 201.06 332.855 201.06C331.775 201.06 331.255 200.38 331.275 199.56C330.475 200.52 329.235 201.2 327.715 201.2ZM326.215 198.42C326.215 199.2 326.755 199.84 327.915 199.84C329.715 199.84 331.155 198.66 331.415 196.96L331.535 196.16L328.515 196.56C327.035 196.76 326.215 197.4 326.215 198.42ZM340.878 201.22C338.458 201.22 336.778 199.3 336.778 196.7C336.778 193.56 338.958 190.96 342.078 190.96C343.558 190.96 344.698 191.7 345.178 192.7C345.258 192.1 345.358 191.46 345.438 190.82L345.998 186.98H347.478L345.498 201H344.078L344.278 199.66C343.418 200.74 342.238 201.22 340.878 201.22ZM338.318 196.7C338.318 198.48 339.278 199.84 341.018 199.84C343.238 199.84 344.818 197.88 344.818 195.52C344.818 193.74 343.838 192.36 342.078 192.36C339.858 192.36 338.318 194.34 338.318 196.7Z" fill="black"/>
<path d="M32.144 738L37.148 725.382H40.316L41.738 738H40.226L39.884 735.12H34.826L33.692 738H32.144ZM35.366 733.77H39.758L38.948 726.714H38.156L35.366 733.77ZM47.9141 738.198C45.7361 738.198 44.2241 736.47 44.2241 734.13C44.2241 731.304 46.1861 728.964 48.9941 728.964C50.3261 728.964 51.3521 729.63 51.7841 730.53C51.8561 729.99 51.9461 729.414 52.0181 728.838L52.5221 725.382H53.8541L52.0721 738H50.7941L50.9741 736.794C50.2001 737.766 49.1381 738.198 47.9141 738.198ZM45.6101 734.13C45.6101 735.732 46.4741 736.956 48.0401 736.956C50.0381 736.956 51.4601 735.192 51.4601 733.068C51.4601 731.466 50.5781 730.224 48.9941 730.224C46.9961 730.224 45.6101 732.006 45.6101 734.13ZM59.0762 738.198C56.8982 738.198 55.3862 736.47 55.3862 734.13C55.3862 731.304 57.3482 728.964 60.1562 728.964C61.4882 728.964 62.5142 729.63 62.9462 730.53C63.0182 729.99 63.1082 729.414 63.1802 728.838L63.6842 725.382H65.0162L63.2342 738H61.9562L62.1362 736.794C61.3622 737.766 60.3002 738.198 59.0762 738.198ZM56.7722 734.13C56.7722 735.732 57.6362 736.956 59.2022 736.956C61.2002 736.956 62.6222 735.192 62.6222 733.068C62.6222 731.466 61.7402 730.224 60.1562 730.224C58.1582 730.224 56.7722 732.006 56.7722 734.13ZM77.8544 738L78.0344 736.776H81.4364L82.3184 730.404H78.8984L79.0784 729.18H83.8304L82.7684 736.776H86.1344L85.9544 738H77.8544ZM81.9764 726.156C81.9764 725.346 82.6424 724.68 83.4524 724.68C84.2624 724.68 84.9284 725.346 84.9284 726.156C84.9284 726.966 84.2624 727.632 83.4524 727.632C82.6424 727.632 81.9764 726.966 81.9764 726.156ZM89.0525 738L90.2945 729.18H91.5905L91.4105 730.44C92.1305 729.54 93.1925 728.964 94.3265 728.964C96.5765 728.964 97.7105 730.548 97.3505 733.05L96.6485 738H95.2985L96.0365 732.762C96.2705 731.106 95.5505 730.206 94.1465 730.206C92.3825 730.206 91.2845 731.556 90.9965 733.626L90.3845 738H89.0525ZM103.221 741.69C100.935 741.69 99.8907 740.286 99.6207 739.764L100.665 738.882C100.917 739.458 101.799 740.466 103.203 740.466C105.255 740.466 106.317 739.17 106.551 737.388L106.641 736.74L106.677 736.416C105.885 737.388 104.805 737.802 103.617 737.802C101.601 737.802 100.197 736.2 100.197 733.986C100.197 731.052 102.303 728.964 104.769 728.964C105.957 728.964 107.163 729.612 107.559 730.494L107.739 729.18H109.035L107.883 737.46C107.505 740.124 105.849 741.69 103.221 741.69ZM101.565 733.878C101.565 735.462 102.519 736.542 103.923 736.542C105.687 736.542 107.199 735.03 107.199 732.924C107.199 731.304 106.227 730.224 104.805 730.224C103.041 730.224 101.565 731.736 101.565 733.878ZM111.953 738L113.195 729.18H114.473L114.275 730.656C114.689 729.756 115.787 728.964 116.939 728.964C118.847 728.964 120.053 730.332 119.765 732.762L119.711 733.212H118.361L118.415 732.798C118.631 731.142 117.911 730.206 116.795 730.206C115.157 730.206 114.167 731.844 113.879 733.914L113.303 738H111.953ZM126.517 738.198C124.141 738.198 122.755 736.524 122.755 734.238C122.755 731.412 124.537 728.964 127.399 728.964C129.883 728.964 130.855 730.908 130.855 732.726C130.855 733.194 130.765 733.734 130.711 734.004H124.105C123.961 735.84 124.951 736.956 126.679 736.956C127.723 736.956 128.605 736.488 129.397 735.66L130.243 736.578C129.325 737.532 128.191 738.198 126.517 738.198ZM124.285 732.816H129.541C129.649 731.268 128.731 730.224 127.255 730.224C125.707 730.224 124.699 731.358 124.285 732.816ZM137.211 738.198C135.033 738.198 133.521 736.47 133.521 734.13C133.521 731.304 135.483 728.964 138.291 728.964C139.623 728.964 140.649 729.63 141.081 730.53C141.153 729.99 141.243 729.414 141.315 728.838L141.819 725.382H143.151L141.369 738H140.091L140.271 736.794C139.497 737.766 138.435 738.198 137.211 738.198ZM134.907 734.13C134.907 735.732 135.771 736.956 137.337 736.956C139.335 736.956 140.757 735.192 140.757 733.068C140.757 731.466 139.875 730.224 138.291 730.224C136.293 730.224 134.907 732.006 134.907 734.13ZM144.827 738L145.007 736.776H148.409L149.291 730.404H145.871L146.051 729.18H150.803L149.741 736.776H153.107L152.927 738H144.827ZM148.949 726.156C148.949 725.346 149.615 724.68 150.425 724.68C151.235 724.68 151.901 725.346 151.901 726.156C151.901 726.966 151.235 727.632 150.425 727.632C149.615 727.632 148.949 726.966 148.949 726.156ZM160.003 738.198C157.627 738.198 156.241 736.524 156.241 734.238C156.241 731.412 158.023 728.964 160.885 728.964C163.369 728.964 164.341 730.908 164.341 732.726C164.341 733.194 164.251 733.734 164.197 734.004H157.591C157.447 735.84 158.437 736.956 160.165 736.956C161.209 736.956 162.091 736.488 162.883 735.66L163.729 736.578C162.811 737.532 161.677 738.198 160.003 738.198ZM157.771 732.816H163.027C163.135 731.268 162.217 730.224 160.741 730.224C159.193 730.224 158.185 731.358 157.771 732.816ZM167.187 738L168.429 729.18H169.725L169.545 730.44C170.265 729.54 171.327 728.964 172.461 728.964C174.711 728.964 175.845 730.548 175.485 733.05L174.783 738H173.433L174.171 732.762C174.405 731.106 173.685 730.206 172.281 730.206C170.517 730.206 169.419 731.556 169.131 733.626L168.519 738H167.187ZM182.957 738.198C181.337 738.198 180.059 737.046 180.383 734.724L180.995 730.404H178.367L178.547 729.18H181.175L181.517 726.732H182.849L182.507 729.18H187.061L186.881 730.404H182.327L181.697 734.904C181.481 736.452 182.219 736.974 183.065 736.974C184.001 736.974 184.685 736.38 184.847 735.624H186.107C185.891 736.992 184.775 738.198 182.957 738.198Z" fill="black"/>
<line y1="144.5" x2="393" y2="144.5" stroke="black"/>
<line y1="181.5" x2="393" y2="181.5" stroke="black"/>
<path d="M300.231 236L302.211 221.98H309.991L309.771 223.44H303.531L302.871 228.14H308.811L308.611 229.6H302.671L301.971 234.54H308.311L308.111 236H300.231ZM315.513 240.1C312.973 240.1 311.813 238.54 311.513 237.96L312.673 236.98C312.953 237.62 313.933 238.74 315.493 238.74C317.773 238.74 318.953 237.3 319.213 235.32L319.313 234.6L319.353 234.24C318.473 235.32 317.273 235.78 315.953 235.78C313.713 235.78 312.153 234 312.153 231.54C312.153 228.28 314.493 225.96 317.233 225.96C318.553 225.96 319.893 226.68 320.333 227.66L320.533 226.2H321.973L320.693 235.4C320.273 238.36 318.433 240.1 315.513 240.1ZM313.673 231.42C313.673 233.18 314.733 234.38 316.293 234.38C318.253 234.38 319.933 232.7 319.933 230.36C319.933 228.56 318.853 227.36 317.273 227.36C315.313 227.36 313.673 229.04 313.673 231.42ZM327.915 240.1C325.375 240.1 324.215 238.54 323.915 237.96L325.075 236.98C325.355 237.62 326.335 238.74 327.895 238.74C330.175 238.74 331.355 237.3 331.615 235.32L331.715 234.6L331.755 234.24C330.875 235.32 329.675 235.78 328.355 235.78C326.115 235.78 324.555 234 324.555 231.54C324.555 228.28 326.895 225.96 329.635 225.96C330.955 225.96 332.295 226.68 332.735 227.66L332.935 226.2H334.375L333.095 235.4C332.675 238.36 330.835 240.1 327.915 240.1ZM326.075 231.42C326.075 233.18 327.135 234.38 328.695 234.38C330.655 234.38 332.335 232.7 332.335 230.36C332.335 228.56 331.255 227.36 329.675 227.36C327.715 227.36 326.075 229.04 326.075 231.42ZM341.198 236.22C339.438 236.22 337.838 235.5 337.038 234.28L338.238 233.36C338.898 234.36 339.998 234.86 341.278 234.86C342.738 234.86 343.978 234.38 343.978 233.2C343.978 232.52 343.398 232.08 342.458 231.92L340.938 231.66C338.918 231.32 337.978 230.34 337.978 228.92C337.978 226.9 340.038 225.96 341.978 225.96C343.498 225.96 345.178 226.64 345.978 228.06L344.758 228.86C344.178 227.82 342.998 227.34 341.778 227.34C340.438 227.34 339.498 227.98 339.498 228.9C339.498 229.58 340.038 230.04 340.998 230.2L342.518 230.46C344.518 230.8 345.478 231.76 345.478 233.2C345.478 235.08 343.578 236.22 341.198 236.22Z" fill="black"/>
<path d="M279.186 270.22C276.146 270.22 274.786 267.54 274.786 264.34C274.786 259.58 277.446 255.76 281.226 255.76C283.906 255.76 285.126 257.24 285.466 259.24L283.906 259.88C283.686 258.28 282.906 257.22 281.186 257.22C278.366 257.22 276.446 260.48 276.446 264.28C276.446 266.84 277.406 268.74 279.386 268.74C281.246 268.74 282.706 267.1 283.206 264.46H280.186L280.386 263.02H284.946L283.966 270H282.646L282.966 267.88C282.226 269.46 280.826 270.22 279.186 270.22ZM290.508 270.2C288.548 270.2 287.488 268.94 287.488 267.5C287.488 265.5 289.068 264.52 291.588 264.22L294.508 263.86L294.548 263.58C294.748 262.16 293.948 261.3 292.628 261.3C291.268 261.3 290.288 262 290.068 263.36H288.528L288.568 263.08C288.808 261.4 290.488 259.94 292.628 259.94C295.128 259.94 296.288 261.52 295.968 263.9L295.488 267.48C295.348 268.44 295.568 268.74 296.388 268.74H297.028L296.848 269.92C296.608 269.98 296.108 270.06 295.648 270.06C294.568 270.06 294.048 269.38 294.068 268.56C293.268 269.52 292.028 270.2 290.508 270.2ZM289.008 267.42C289.008 268.2 289.548 268.84 290.708 268.84C292.508 268.84 293.948 267.66 294.208 265.96L294.328 265.16L291.308 265.56C289.828 265.76 289.008 266.4 289.008 267.42ZM300.411 270L301.791 260.2H303.211L302.991 261.84C303.451 260.84 304.671 259.96 305.951 259.96C308.071 259.96 309.411 261.48 309.091 264.18L309.031 264.68H307.531L307.591 264.22C307.831 262.38 307.031 261.34 305.791 261.34C303.971 261.34 302.871 263.16 302.551 265.46L301.911 270H300.411ZM311.733 270L311.933 268.64H315.913L317.493 257.34H313.493L313.693 255.98H319.173L317.393 268.64H321.333L321.133 270H311.733ZM324.535 270L324.735 268.64H328.515L329.495 261.56H325.695L325.895 260.2H331.175L329.995 268.64H333.735L333.535 270H324.535ZM329.115 256.84C329.115 255.94 329.855 255.2 330.755 255.2C331.655 255.2 332.395 255.94 332.395 256.84C332.395 257.74 331.655 258.48 330.755 258.48C329.855 258.48 329.115 257.74 329.115 256.84ZM341.398 270.22C338.858 270.22 337.058 268.32 337.058 265.72C337.058 262.46 339.418 259.96 342.558 259.96C344.758 259.96 346.338 261.36 346.598 262.98L345.158 263.42C344.918 262.34 344.038 261.36 342.518 261.36C340.258 261.36 338.618 263.2 338.618 265.64C338.618 267.44 339.718 268.84 341.518 268.84C343.098 268.84 344.238 267.92 344.878 266.54L346.218 267C345.638 268.54 344.018 270.22 341.398 270.22Z" fill="black"/>
<line y1="213.5" x2="393" y2="213.5" stroke="black"/>
<line y1="250.5" x2="393" y2="250.5" stroke="black"/>
<line y1="279.5" x2="393" y2="279.5" stroke="black"/>
<line y1="768.5" x2="393" y2="768.5" stroke="black"/>
<rect x="32.5" y="155.5" width="16" height="16" stroke="black"/>
<path d="M28 165.715C28.3483 165.75 28.6922 166.085 28.9595 166.276C29.4495 166.625 29.9569 166.972 30.4273 167.346C31.4651 168.171 32.7303 168.953 33.6542 169.901C33.8986 170.151 34.212 170.308 34.4595 170.551C34.6678 170.755 34.8067 171.029 35.0135 171.24C35.2537 171.484 35.4373 171.745 35.6874 171.99C35.7359 172.038 35.7259 171.896 35.7788 171.822C36.2231 171.209 36.6633 170.592 37.1096 169.979C39.5829 166.582 41.8377 163.046 44.3572 159.676C45.9998 157.478 47.5052 155.185 49.1776 153.008C49.3981 152.721 49.6733 152.16 50 152" stroke="black" stroke-width="3"/>
<rect x="32.5" y="190.5" width="16" height="16" stroke="black"/>
<path d="M28 200.715C28.3483 200.75 28.6922 201.085 28.9595 201.276C29.4495 201.625 29.9569 201.972 30.4273 202.346C31.4651 203.171 32.7303 203.953 33.6542 204.901C33.8986 205.151 34.212 205.308 34.4595 205.551C34.6678 205.755 34.8067 206.029 35.0135 206.24C35.2537 206.484 35.4373 206.745 35.6874 206.99C35.7359 207.038 35.7259 206.896 35.7788 206.822C36.2231 206.209 36.6633 205.592 37.1096 204.979C39.5829 201.582 41.8377 198.046 44.3572 194.676C45.9998 192.478 47.5052 190.185 49.1776 188.008C49.3981 187.721 49.6733 187.16 50 187" stroke="black" stroke-width="3"/>
<rect x="32.5" y="224.5" width="16" height="16" stroke="black"/>
<path d="M28 234.715C28.3483 234.75 28.6922 235.085 28.9595 235.276C29.4495 235.625 29.9569 235.972 30.4273 236.346C31.4651 237.171 32.7303 237.953 33.6542 238.901C33.8986 239.151 34.212 239.308 34.4595 239.551C34.6678 239.755 34.8067 240.029 35.0135 240.24C35.2537 240.484 35.4373 240.745 35.6874 240.99C35.7359 241.038 35.7259 240.896 35.7788 240.822C36.2231 240.209 36.6633 239.592 37.1096 238.979C39.5829 235.582 41.8377 232.046 44.3572 228.676C45.9998 226.478 47.5052 224.185 49.1776 222.008C49.3981 221.721 49.6733 221.16 50 221" stroke="black" stroke-width="3"/>
<rect x="32.5" y="256.5" width="16" height="16" stroke="black"/>
<path d="M28 266.715C28.3483 266.75 28.6922 267.085 28.9595 267.276C29.4495 267.625 29.9569 267.972 30.4273 268.346C31.4651 269.171 32.7303 269.953 33.6542 270.901C33.8986 271.151 34.212 271.308 34.4595 271.551C34.6678 271.755 34.8067 272.029 35.0135 272.24C35.2537 272.484 35.4373 272.745 35.6874 272.99C35.7359 273.038 35.7259 272.896 35.7788 272.822C36.2231 272.209 36.6633 271.592 37.1096 270.979C39.5829 267.582 41.8377 264.046 44.3572 260.676C45.9998 258.478 47.5052 256.185 49.1776 254.008C49.3981 253.721 49.6733 253.16 50 253" stroke="black" stroke-width="3"/>
<rect x="28.5" y="716.5" width="239" height="31" stroke="black"/>
<path d="M158.5 765.5H236.5V822C236.5 826.142 233.142 829.5 229 829.5H166C161.858 829.5 158.5 826.142 158.5 822V765.5Z" fill="#A5A9FF" stroke="black"/>
<circle cx="197.5" cy="796.5" r="17" stroke="black" stroke-width="7"/>
</g>
<defs>
<clipPath id="clip0_12_58">
<rect width="393" height="852" fill="white"/>
</clipPath>
</defs>
</svg>
